<svg xmlns="http://www.w3.org/2000/svg" width="560" height="330" viewBox="0 0 560 330">
<rect width="100%" height="100%" fill="#ffffff"/>
<text x="280.0" y="28" text-anchor="middle" font-family="Arial, sans-serif" font-size="18" font-weight="700" fill="#111827">Final Obstacle Success Matrix</text>
<line x1="70" y1="235" x2="535" y2="235" stroke="#9ca3af"/>
<line x1="70" y1="55" x2="70" y2="235" stroke="#9ca3af"/>
<line x1="70" y1="235.0" x2="535" y2="235.0" stroke="#e5e7eb"/>
<text x="60" y="239.0" text-anchor="end" font-family="Arial, sans-serif" font-size="11" fill="#4b5563">0%</text>
<line x1="70" y1="190.0" x2="535" y2="190.0" stroke="#e5e7eb"/>
<text x="60" y="194.0" text-anchor="end" font-family="Arial, sans-serif" font-size="11" fill="#4b5563">25%</text>
<line x1="70" y1="145.0" x2="535" y2="145.0" stroke="#e5e7eb"/>
<text x="60" y="149.0" text-anchor="end" font-family="Arial, sans-serif" font-size="11" fill="#4b5563">50%</text>
<line x1="70" y1="100.0" x2="535" y2="100.0" stroke="#e5e7eb"/>
<text x="60" y="104.0" text-anchor="end" font-family="Arial, sans-serif" font-size="11" fill="#4b5563">75%</text>
<line x1="70" y1="55.0" x2="535" y2="55.0" stroke="#e5e7eb"/>
<text x="60" y="59.0" text-anchor="end" font-family="Arial, sans-serif" font-size="11" fill="#4b5563">100%</text>
<rect x="70.0" y="55.0" width="225.5" height="180.0" rx="4" fill="#0f766e"/>
<text x="182.8" y="48.0" text-anchor="middle" font-family="Arial, sans-serif" font-size="12" font-weight="700" fill="#111827">100%</text>
<text x="182.8" y="257.0" text-anchor="middle" font-family="Arial, sans-serif" font-size="11" fill="#374151">cubes</text>
<text x="182.8" y="271.0" text-anchor="middle" font-family="Arial, sans-serif" font-size="11" fill="#374151">group_obs</text>
<text x="182.8" y="285.0" text-anchor="middle" font-family="Arial, sans-serif" font-size="11" fill="#374151">4/4</text>
<rect x="309.5" y="55.0" width="225.5" height="180.0" rx="4" fill="#0f766e"/>
<text x="422.2" y="48.0" text-anchor="middle" font-family="Arial, sans-serif" font-size="12" font-weight="700" fill="#111827">100%</text>
<text x="422.2" y="257.0" text-anchor="middle" font-family="Arial, sans-serif" font-size="11" fill="#374151">tabung</text>
<text x="422.2" y="271.0" text-anchor="middle" font-family="Arial, sans-serif" font-size="11" fill="#374151">group_obs</text>
<text x="422.2" y="285.0" text-anchor="middle" font-family="Arial, sans-serif" font-size="11" fill="#374151">4/4</text>
</svg>
