<svg xmlns="http://www.w3.org/2000/svg" width="820" height="330" viewBox="0 0 820 330">
<rect width="100%" height="100%" fill="#ffffff"/>
<text x="410" y="28" text-anchor="middle" font-family="Arial, sans-serif" font-size="18" font-weight="700" fill="#111827">Final Cube Stack Success Matrix</text>
<line x1="70" y1="235" x2="795" y2="235" stroke="#9ca3af"/>
<line x1="70" y1="55" x2="70" y2="235" stroke="#9ca3af"/>
<line x1="70" y1="235" x2="795" y2="235" stroke="#e5e7eb"/>
<text x="60" y="239" text-anchor="end" font-family="Arial, sans-serif" font-size="11" fill="#4b5563">0%</text>
<line x1="70" y1="190" x2="795" y2="190" stroke="#e5e7eb"/>
<text x="60" y="194" text-anchor="end" font-family="Arial, sans-serif" font-size="11" fill="#4b5563">25%</text>
<line x1="70" y1="145" x2="795" y2="145" stroke="#e5e7eb"/>
<text x="60" y="149" text-anchor="end" font-family="Arial, sans-serif" font-size="11" fill="#4b5563">50%</text>
<line x1="70" y1="100" x2="795" y2="100" stroke="#e5e7eb"/>
<text x="60" y="104" text-anchor="end" font-family="Arial, sans-serif" font-size="11" fill="#4b5563">75%</text>
<line x1="70" y1="55" x2="795" y2="55" stroke="#e5e7eb"/>
<text x="60" y="59" text-anchor="end" font-family="Arial, sans-serif" font-size="11" fill="#4b5563">100%</text>
<rect x="70" y="55" width="170.8" height="180" rx="4" fill="#0f766e"/>
<text x="155.4" y="48" text-anchor="middle" font-family="Arial, sans-serif" font-size="12" font-weight="700" fill="#111827">100%</text>
<text x="155.4" y="257" text-anchor="middle" font-family="Arial, sans-serif" font-size="11" fill="#374151">stack cubes</text>
<text x="155.4" y="271" text-anchor="middle" font-family="Arial, sans-serif" font-size="11" fill="#374151">group_no_obs</text>
<text x="155.4" y="285" text-anchor="middle" font-family="Arial, sans-serif" font-size="11" fill="#374151">4/4</text>
<rect x="254.8" y="55" width="170.8" height="180" rx="4" fill="#0f766e"/>
<text x="340.2" y="48" text-anchor="middle" font-family="Arial, sans-serif" font-size="12" font-weight="700" fill="#111827">100%</text>
<text x="340.2" y="257" text-anchor="middle" font-family="Arial, sans-serif" font-size="11" fill="#374151">stack cubes</text>
<text x="340.2" y="271" text-anchor="middle" font-family="Arial, sans-serif" font-size="11" fill="#374151">ungroup_no_obs</text>
<text x="340.2" y="285" text-anchor="middle" font-family="Arial, sans-serif" font-size="11" fill="#374151">4/4</text>
<rect x="439.5" y="55" width="170.8" height="180" rx="4" fill="#0f766e"/>
<text x="524.9" y="48" text-anchor="middle" font-family="Arial, sans-serif" font-size="12" font-weight="700" fill="#111827">100%</text>
<text x="524.9" y="257" text-anchor="middle" font-family="Arial, sans-serif" font-size="11" fill="#374151">stack cubes</text>
<text x="524.9" y="271" text-anchor="middle" font-family="Arial, sans-serif" font-size="11" fill="#374151">group_obs</text>
<text x="524.9" y="285" text-anchor="middle" font-family="Arial, sans-serif" font-size="11" fill="#374151">4/4</text>
<rect x="624.2" y="55" width="170.8" height="180" rx="4" fill="#0f766e"/>
<text x="709.6" y="48" text-anchor="middle" font-family="Arial, sans-serif" font-size="12" font-weight="700" fill="#111827">100%</text>
<text x="709.6" y="257" text-anchor="middle" font-family="Arial, sans-serif" font-size="11" fill="#374151">stack cubes</text>
<text x="709.6" y="271" text-anchor="middle" font-family="Arial, sans-serif" font-size="11" fill="#374151">ungroup_obs</text>
<text x="709.6" y="285" text-anchor="middle" font-family="Arial, sans-serif" font-size="11" fill="#374151">4/4</text>
</svg>
