<svg xmlns="http://www.w3.org/2000/svg" width="1180" height="390" viewBox="0 0 1180 390">
<rect width="100%" height="100%" fill="#ffffff"/>
<text x="590.0" y="28" text-anchor="middle" font-family="Arial, sans-serif" font-size="18" font-weight="700" fill="#111827">Progress Refactor Berdasarkan Log</text>
<line x1="70" y1="295" x2="1155" y2="295" stroke="#9ca3af"/>
<line x1="70" y1="55" x2="70" y2="295" stroke="#9ca3af"/>
<line x1="70" y1="295.0" x2="1155" y2="295.0" stroke="#e5e7eb"/>
<text x="60" y="299.0" text-anchor="end" font-family="Arial, sans-serif" font-size="11" fill="#4b5563">0%</text>
<line x1="70" y1="235.0" x2="1155" y2="235.0" stroke="#e5e7eb"/>
<text x="60" y="239.0" text-anchor="end" font-family="Arial, sans-serif" font-size="11" fill="#4b5563">25%</text>
<line x1="70" y1="175.0" x2="1155" y2="175.0" stroke="#e5e7eb"/>
<text x="60" y="179.0" text-anchor="end" font-family="Arial, sans-serif" font-size="11" fill="#4b5563">50%</text>
<line x1="70" y1="115.0" x2="1155" y2="115.0" stroke="#e5e7eb"/>
<text x="60" y="119.0" text-anchor="end" font-family="Arial, sans-serif" font-size="11" fill="#4b5563">75%</text>
<line x1="70" y1="55.0" x2="1155" y2="55.0" stroke="#e5e7eb"/>
<text x="60" y="59.0" text-anchor="end" font-family="Arial, sans-serif" font-size="11" fill="#4b5563">100%</text>
<rect x="70.0" y="115.0" width="108.1" height="180.0" rx="4" fill="#2563eb"/>
<text x="124.1" y="108.0" text-anchor="middle" font-family="Arial, sans-serif" font-size="12" font-weight="700" fill="#111827">75%</text>
<text x="124.1" y="317.0" text-anchor="middle" font-family="Arial, sans-serif" font-size="11" fill="#374151">Before refactor</text>
<text x="124.1" y="331.0" text-anchor="middle" font-family="Arial, sans-serif" font-size="11" fill="#374151">cubes group_no_obs</text>
<rect x="192.1" y="175.0" width="108.1" height="120.0" rx="4" fill="#9ca3af"/>
<text x="246.2" y="168.0" text-anchor="middle" font-family="Arial, sans-serif" font-size="12" font-weight="700" fill="#111827">50%</text>
<text x="246.2" y="317.0" text-anchor="middle" font-family="Arial, sans-serif" font-size="11" fill="#374151">Before refactor</text>
<text x="246.2" y="331.0" text-anchor="middle" font-family="Arial, sans-serif" font-size="11" fill="#374151">tabung group_no_obs</text>
<rect x="314.2" y="295.0" width="108.1" height="0.0" rx="4" fill="#9ca3af"/>
<text x="368.3" y="288.0" text-anchor="middle" font-family="Arial, sans-serif" font-size="12" font-weight="700" fill="#111827">0%</text>
<text x="368.3" y="317.0" text-anchor="middle" font-family="Arial, sans-serif" font-size="11" fill="#374151">Refactor 1</text>
<text x="368.3" y="331.0" text-anchor="middle" font-family="Arial, sans-serif" font-size="11" fill="#374151">cubes group_no_obs</text>
<rect x="436.3" y="55.0" width="108.1" height="240.0" rx="4" fill="#0f766e"/>
<text x="490.4" y="48.0" text-anchor="middle" font-family="Arial, sans-serif" font-size="12" font-weight="700" fill="#111827">100%</text>
<text x="490.4" y="317.0" text-anchor="middle" font-family="Arial, sans-serif" font-size="11" fill="#374151">Refactor 2</text>
<text x="490.4" y="331.0" text-anchor="middle" font-family="Arial, sans-serif" font-size="11" fill="#374151">cubes group_no_obs</text>
<rect x="558.4" y="55.0" width="108.1" height="240.0" rx="4" fill="#0f766e"/>
<text x="612.5" y="48.0" text-anchor="middle" font-family="Arial, sans-serif" font-size="12" font-weight="700" fill="#111827">100%</text>
<text x="612.5" y="317.0" text-anchor="middle" font-family="Arial, sans-serif" font-size="11" fill="#374151">Refactor 2</text>
<text x="612.5" y="331.0" text-anchor="middle" font-family="Arial, sans-serif" font-size="11" fill="#374151">tabung group_no_obs</text>
<rect x="680.6" y="235.0" width="108.1" height="60.0" rx="4" fill="#9ca3af"/>
<text x="734.6" y="228.0" text-anchor="middle" font-family="Arial, sans-serif" font-size="12" font-weight="700" fill="#111827">25%</text>
<text x="734.6" y="317.0" text-anchor="middle" font-family="Arial, sans-serif" font-size="11" fill="#374151">Before Refactor 3</text>
<text x="734.6" y="331.0" text-anchor="middle" font-family="Arial, sans-serif" font-size="11" fill="#374151">cubes group_obs</text>
<rect x="802.7" y="235.0" width="108.1" height="60.0" rx="4" fill="#9ca3af"/>
<text x="856.7" y="228.0" text-anchor="middle" font-family="Arial, sans-serif" font-size="12" font-weight="700" fill="#111827">25%</text>
<text x="856.7" y="317.0" text-anchor="middle" font-family="Arial, sans-serif" font-size="11" fill="#374151">Before Refactor 3</text>
<text x="856.7" y="331.0" text-anchor="middle" font-family="Arial, sans-serif" font-size="11" fill="#374151">tabung group_obs</text>
<rect x="924.8" y="55.0" width="108.1" height="240.0" rx="4" fill="#0f766e"/>
<text x="978.8" y="48.0" text-anchor="middle" font-family="Arial, sans-serif" font-size="12" font-weight="700" fill="#111827">100%</text>
<text x="978.8" y="317.0" text-anchor="middle" font-family="Arial, sans-serif" font-size="11" fill="#374151">Refactor 3</text>
<text x="978.8" y="331.0" text-anchor="middle" font-family="Arial, sans-serif" font-size="11" fill="#374151">cubes group_obs</text>
<rect x="1046.9" y="55.0" width="108.1" height="240.0" rx="4" fill="#0f766e"/>
<text x="1100.9" y="48.0" text-anchor="middle" font-family="Arial, sans-serif" font-size="12" font-weight="700" fill="#111827">100%</text>
<text x="1100.9" y="317.0" text-anchor="middle" font-family="Arial, sans-serif" font-size="11" fill="#374151">Refactor 3</text>
<text x="1100.9" y="331.0" text-anchor="middle" font-family="Arial, sans-serif" font-size="11" fill="#374151">tabung group_obs</text>
</svg>
