<svg xmlns="http://www.w3.org/2000/svg" width="760" height="350" viewBox="0 0 760 350">
<rect width="100%" height="100%" fill="#ffffff"/>
<text x="380.0" y="28" text-anchor="middle" font-family="Arial, sans-serif" font-size="18" font-weight="700" fill="#111827">Refactor 3 Group Obstacle Progress</text>
<line x1="70" y1="255" x2="735" y2="255" stroke="#9ca3af"/>
<line x1="70" y1="55" x2="70" y2="255" stroke="#9ca3af"/>
<line x1="70" y1="255.0" x2="735" y2="255.0" stroke="#e5e7eb"/>
<text x="60" y="259.0" text-anchor="end" font-family="Arial, sans-serif" font-size="11" fill="#4b5563">0%</text>
<line x1="70" y1="205.0" x2="735" y2="205.0" stroke="#e5e7eb"/>
<text x="60" y="209.0" text-anchor="end" font-family="Arial, sans-serif" font-size="11" fill="#4b5563">25%</text>
<line x1="70" y1="155.0" x2="735" y2="155.0" stroke="#e5e7eb"/>
<text x="60" y="159.0" text-anchor="end" font-family="Arial, sans-serif" font-size="11" fill="#4b5563">50%</text>
<line x1="70" y1="105.0" x2="735" y2="105.0" stroke="#e5e7eb"/>
<text x="60" y="109.0" text-anchor="end" font-family="Arial, sans-serif" font-size="11" fill="#4b5563">75%</text>
<line x1="70" y1="55.0" x2="735" y2="55.0" stroke="#e5e7eb"/>
<text x="60" y="59.0" text-anchor="end" font-family="Arial, sans-serif" font-size="11" fill="#4b5563">100%</text>
<rect x="70.0" y="205.0" width="155.8" height="50.0" rx="4" fill="#9ca3af"/>
<text x="147.9" y="198.0" text-anchor="middle" font-family="Arial, sans-serif" font-size="12" font-weight="700" fill="#111827">25%</text>
<text x="147.9" y="277.0" text-anchor="middle" font-family="Arial, sans-serif" font-size="11" fill="#374151">Before Refactor 3</text>
<text x="147.9" y="291.0" text-anchor="middle" font-family="Arial, sans-serif" font-size="11" fill="#374151">cubes group_obs</text>
<rect x="239.8" y="205.0" width="155.8" height="50.0" rx="4" fill="#9ca3af"/>
<text x="317.6" y="198.0" text-anchor="middle" font-family="Arial, sans-serif" font-size="12" font-weight="700" fill="#111827">25%</text>
<text x="317.6" y="277.0" text-anchor="middle" font-family="Arial, sans-serif" font-size="11" fill="#374151">Before Refactor 3</text>
<text x="317.6" y="291.0" text-anchor="middle" font-family="Arial, sans-serif" font-size="11" fill="#374151">tabung group_obs</text>
<rect x="409.5" y="55.0" width="155.8" height="200.0" rx="4" fill="#0f766e"/>
<text x="487.4" y="48.0" text-anchor="middle" font-family="Arial, sans-serif" font-size="12" font-weight="700" fill="#111827">100%</text>
<text x="487.4" y="277.0" text-anchor="middle" font-family="Arial, sans-serif" font-size="11" fill="#374151">Refactor 3</text>
<text x="487.4" y="291.0" text-anchor="middle" font-family="Arial, sans-serif" font-size="11" fill="#374151">cubes group_obs</text>
<rect x="579.2" y="55.0" width="155.8" height="200.0" rx="4" fill="#0f766e"/>
<text x="657.1" y="48.0" text-anchor="middle" font-family="Arial, sans-serif" font-size="12" font-weight="700" fill="#111827">100%</text>
<text x="657.1" y="277.0" text-anchor="middle" font-family="Arial, sans-serif" font-size="11" fill="#374151">Refactor 3</text>
<text x="657.1" y="291.0" text-anchor="middle" font-family="Arial, sans-serif" font-size="11" fill="#374151">tabung group_obs</text>
</svg>
